<svg xmlns="http://www.w3.org/2000/svg" height="800" width="1200" viewBox="-76.5 -22.4795 663 134.877"><path d="M162.399 0l28.538 74.083h11.076v15.801h-39.969V74.083h9.051l-5.256-14.372h-31.502l-5.308 14.4h10.582v15.801H99.268V74.083H109.8L136.428 0zm-23.972 44.386h22.321l-11.522-29.405zM234.7 15.609v58.5h-13.5v15.8h78.6v-29.5H283v13.7h-29.6v-58.5h13.4V.009h-45.5v15.6zm100.9 0v58.5H322v15.8h78.6v-29.5h-16.7v13.7h-29.6v-58.5h13.3V.009h-45.4v15.6zm84.7.1l29.5 43.6v14.8h-13.3v15.8h45.4v-15.8h-13.6v-14.9l28.9-43.4H510V.009h-42.6v15.7h9.9l-17.4 28-18.3-28h9.7V.009h-43v15.7zM0 0h50.4c18.452 0 30.4 10.3 30.4 23 0 13.497-7.841 19.591-15.795 21.197 8.57 1.4 19 7.7 19 21.221 0 13.565-9.986 24.505-26.576 24.5H.037V74.083h13.414V15.732H0zm31.273 15.732v20.984h20.6c7.56 0 10.394-5.716 10.394-10.974 0-4.616-4.088-10.011-11.395-10.011-7.309-.022-19.572-.022-19.572.001zm0 58.351h22c7.727 0 10.572-5.778 10.572-10.167 0-5.028-3.506-10.239-10.859-10.239H31.253v20.406z" fill="#762322"/></svg>